<svg xmlns="http://www.w3.org/2000/svg" width="1200" height="630" viewBox="0 0 1200 630">
  <defs>
    <radialGradient id="g1" cx="20%" cy="30%" r="60%">
      <stop offset="0%" stop-color="rgba(201,169,110,0.3)"/>
      <stop offset="100%" stop-color="rgba(10,10,18,0)"/>
    </radialGradient>
    <radialGradient id="g2" cx="75%" cy="60%" r="50%">
      <stop offset="0%" stop-color="rgba(45,168,130,0.2)"/>
      <stop offset="100%" stop-color="rgba(10,10,18,0)"/>
    </radialGradient>
    <radialGradient id="g3" cx="50%" cy="80%" r="40%">
      <stop offset="0%" stop-color="rgba(139,92,246,0.15)"/>
      <stop offset="100%" stop-color="rgba(10,10,18,0)"/>
    </radialGradient>
  </defs>
  <rect width="1200" height="630" fill="#0A0A12"/>
  <rect width="1200" height="630" fill="url(#g1)"/>
  <rect width="1200" height="630" fill="url(#g2)"/>
  <rect width="1200" height="630" fill="url(#g3)"/>
  <!-- Musical notes -->
  <g transform="translate(180,200)" fill="none" stroke="rgba(201,169,110,0.4)" stroke-width="2">
    <ellipse cx="0" cy="30" rx="18" ry="14" transform="rotate(-20)"/>
    <line x1="14" y1="22" x2="14" y2="-50"/>
    <ellipse cx="-60" cy="20" rx="16" ry="12" transform="rotate(-15)"/>
    <line x1="-48" y1="14" x2="-48" y2="-40"/>
  </g>
  <!-- Sound wave arcs -->
  <g transform="translate(600,315)" fill="none" stroke="rgba(201,169,110,0.3)" stroke-width="1.5">
    <path d="M-250,0 Q-125,-80 0,0 Q125,80 250,0" />
    <path d="M-200,0 Q-100,-60 0,0 Q100,60 200,0" />
    <path d="M-150,0 Q-75,-40 0,0 Q75,40 150,0" />
  </g>
  <!-- Dots -->
  <g fill="rgba(201,169,110,0.25)">
    <circle cx="200" cy="100" r="1.5"/>
    <circle cx="450" cy="180" r="1"/>
    <circle cx="700" cy="120" r="1.5"/>
    <circle cx="950" cy="200" r="1"/>
    <circle cx="300" cy="400" r="1.5"/>
    <circle cx="600" cy="450" r="1"/>
    <circle cx="850" cy="380" r="1.5"/>
    <circle cx="100" cy="500" r="1"/>
    <circle cx="400" cy="520" r="1.5"/>
    <circle cx="750" cy="540" r="1"/>
    <circle cx="1050" cy="480" r="1.5"/>
    <circle cx="150" cy="300" r="1"/>
    <circle cx="550" cy="550" r="1.5"/>
    <circle cx="900" cy="500" r="1"/>
    <circle cx="1100" cy="350" r="1.5"/>
  </g>
  <!-- Brain-like pattern center -->
  <g transform="translate(600,315)" fill="none" stroke="rgba(201,169,110,0.12)" stroke-width="0.8">
    <path d="M-80,-40 Q-40,-80 0,-40 Q40,-80 80,-40 Q60,0 80,40 Q40,80 0,40 Q-40,80 -80,40 Q-60,0 -80,-40Z"/>
    <path d="M-50,-20 Q-25,-45 0,-20 Q25,-45 50,-20 Q35,0 50,20 Q25,45 0,20 Q-25,45 -50,20 Q-35,0 -50,-20Z"/>
    <path d="M-25,-10 Q-12,-25 0,-10 Q12,-25 25,-10 Q15,0 25,10 Q12,25 0,10 Q-12,25 -25,10 Q-15,0 -25,-10Z"/>
  </g>
</svg>